# xmcd
#
# Track frame offsets: 
#        150
#        12830
#        29467
#        43950
#        57015
#        73161
#        85156
#        98870
#        113736
#        129666
#        143895
#        157467
#        170829
#        187177
#        204572
#        217671
#        232611
#        247314
#        263408
#        281022
#
# Disc length: 3962 seconds
#
# Revision: 0
# Processed by: cddbd v1.5.2PL0 Copyright (c) Steve Scherf et al.
# Submitted via: ExactAudioCopy v1.1
#
DISCID=2a0f7814
DTITLE=Various Artist - MENT - De Vlaamse Top 10 2018 - CD2
DYEAR=2018
DGENRE=Chanson
TTITLE0=Laura Lynn - Ik Trek Het Me Niet Aan
TTITLE1=Bart Kaëll - Lichaamstaal
TTITLE2=Lissa Lewis - M'n Eigen Gang Gaan
TTITLE3=Danny Fabry - Hallo
TTITLE4=KLUBBB3 - Ho-Dio-Di-Jee (Paris Paris Paris)
TTITLE5=Ment Party Band - Party Song
TTITLE6=De Romeo's - Een Laatste Rondje
TTITLE7=K3 - Whoppa!
TTITLE8=Wim Soutaer - Neem Me Bij De Hand
TTITLE9=Eveline Cannoot - Adrenaline
TTITLE10=Sammy Moore - Zaterdagavond
TTITLE11=Loredana - Vanavond Gaat Het Down
TTITLE12=Michiel De Meyer - Schouder
TTITLE13=Amaryllis Temmerman - Handen Op Je Rug
TTITLE14=Dean - Klatergoud
TTITLE15=Sabien Tiels - Hier En Nu
TTITLE16=Patrick Onzia - Vergeet Niet Te Leven
TTITLE17=Kim Dejonghe - Wie Ik Ben
TTITLE18=Connie Neefs - Wachten Op Mijn Dochter
TTITLE19=Garry Hagger - Het Allermooiste (2018)
EXTD=
EXTT0=
EXTT1=
EXTT2=
EXTT3=
EXTT4=
EXTT5=
EXTT6=
EXTT7=
EXTT8=
EXTT9=
EXTT10=
EXTT11=
EXTT12=
EXTT13=
EXTT14=
EXTT15=
EXTT16=
EXTT17=
EXTT18=
EXTT19=
PLAYORDER=
